<?xml version="1.0" standalone="no"?>
<!DOCTYPE svg PUBLIC "-//W3C//DTD SVG 20010904//EN"
 "http://www.w3.org/TR/2001/REC-SVG-20010904/DTD/svg10.dtd">
<svg version="1.0" xmlns="http://www.w3.org/2000/svg"
 width="1023.000000pt" height="1280.000000pt" viewBox="0 0 1023.000000 1280.000000"
 preserveAspectRatio="xMidYMid meet">

<g transform="translate(0.000000,1280.000000) scale(0.100000,-0.100000)"
fill="#000000" stroke="none">
<path d="M4720 10584 c-473 -18 -983 -62 -1325 -115 -71 -11 -148 -22 -170
-25 -143 -20 -565 -101 -695 -134 -41 -10 -151 -37 -245 -60 -358 -85 -707
-189 -1065 -317 -215 -77 -230 -86 -82 -54 482 108 1184 222 1592 261 58 5
150 14 205 20 688 69 1665 78 2410 20 903 -70 1775 -222 2620 -457 110 -31
218 -60 241 -66 l41 -10 9 -1621 c14 -2524 13 -2937 -9 -3076 -87 -552 -300
-1023 -675 -1491 -94 -119 -272 -316 -350 -388 -20 -19 -68 -64 -107 -100
-150 -142 -357 -309 -645 -517 -102 -74 -442 -286 -604 -376 -152 -85 -531
-279 -641 -328 -27 -12 -72 -32 -100 -45 -27 -12 -111 -48 -185 -80 -74 -32
-137 -60 -140 -62 -23 -21 397 103 648 191 842 295 1626 751 2162 1259 617
584 978 1241 1084 1967 30 208 35 470 41 2020 3 866 8 1898 11 2292 l7 718
-35 14 c-87 37 -573 173 -838 235 -254 60 -305 71 -485 105 -562 107 -1017
166 -1565 202 -218 14 -915 25 -1110 18z"/>
<path d="M4618 9983 c12 -2 32 -2 45 0 12 2 2 4 -23 4 -25 0 -35 -2 -22 -4z"/>
<path d="M4075 9800 c-3 -6 1 -7 9 -4 18 7 21 14 7 14 -6 0 -13 -4 -16 -10z"/>
<path d="M3915 9740 c-3 -6 1 -7 9 -4 18 7 21 14 7 14 -6 0 -13 -4 -16 -10z"/>
<path d="M941 9705 c-1 -22 -8 -143 -16 -270 -14 -221 -33 -677 -55 -1285 -23
-667 -33 -1270 -34 -2130 -1 -909 -1 -916 22 -1040 78 -431 217 -773 479
-1184 197 -307 550 -696 888 -976 572 -476 1169 -826 1810 -1063 215 -79 572
-193 580 -185 2 2 -37 21 -88 42 -730 307 -1344 666 -1865 1094 -390 319 -778
730 -1031 1092 -266 382 -422 715 -505 1077 -52 225 -57 305 -66 1108 -14
1157 -36 2167 -55 2530 -3 55 -10 217 -15 360 -12 313 -40 846 -45 860 -2 6
-4 -8 -4 -30z"/>
<path d="M3144 9640 c-12 -5 -25 -13 -29 -19 -3 -6 -30 -11 -59 -11 -195 0
-294 -147 -266 -392 21 -175 94 -424 173 -586 19 -40 33 -81 30 -92 -11 -42
122 -197 235 -273 58 -40 135 -71 199 -82 40 -6 43 -8 37 -33 -17 -76 -28
-109 -59 -182 -76 -178 -104 -347 -86 -514 21 -183 112 -339 236 -404 41 -21
67 -26 145 -30 100 -4 81 -8 368 83 9 3 12 -14 12 -65 l0 -69 -42 -12 c-145
-38 -334 -121 -457 -199 l-63 -41 28 -24 c16 -14 34 -25 40 -25 5 0 50 25 100
56 81 51 164 95 267 139 73 32 253 84 367 107 98 19 147 23 330 23 197 0 226
-2 345 -27 260 -55 412 -116 662 -264 31 -18 32 -18 59 2 15 11 27 24 27 29 0
6 -36 32 -81 58 l-81 49 15 41 c65 181 172 626 215 889 l22 137 31 7 c98 21
206 120 249 229 28 74 34 105 17 105 -5 0 -35 -10 -67 -21 -91 -34 -155 -87
-211 -174 -11 -17 -12 -10 -8 50 3 39 6 84 6 100 0 27 5 32 48 47 26 10 69 36
97 58 88 74 130 152 142 262 l6 60 -35 -15 c-111 -46 -177 -109 -230 -217
l-17 -35 -1 100 0 100 36 20 c55 30 138 128 164 193 12 31 25 87 27 125 5 58
3 67 -11 67 -51 0 -162 -109 -191 -187 -10 -27 -21 -52 -26 -57 -13 -14 -22
82 -11 112 20 51 35 152 29 202 -3 27 -16 73 -28 102 -22 52 -93 148 -109 148
-14 0 -49 -82 -60 -139 -18 -96 20 -241 82 -316 16 -19 27 -48 32 -82 7 -59
-1 -67 -26 -25 -46 77 -175 186 -247 207 -24 7 -24 7 -18 -51 8 -73 53 -166
109 -222 23 -24 75 -59 115 -78 l73 -35 0 -85 c0 -46 -3 -84 -8 -84 -4 0 -16
16 -27 36 -38 70 -181 174 -240 174 -23 0 -18 -51 12 -127 34 -87 114 -169
198 -204 l57 -24 -7 -85 c-4 -47 -9 -89 -12 -94 -3 -4 -19 16 -35 45 -39 72
-93 126 -153 155 -76 36 -79 34 -73 -40 10 -115 109 -253 207 -287 36 -13 37
8 -10 -234 -58 -296 -192 -783 -220 -800 -4 -3 -45 8 -91 24 -46 17 -102 35
-125 41 l-43 11 0 503 c0 320 -4 524 -11 561 -21 117 -78 197 -196 276 -126
85 -157 126 -166 217 -5 47 -3 52 15 52 10 0 28 5 39 10 17 10 19 22 19 115 0
93 -2 105 -19 115 -12 6 -116 10 -269 10 -300 0 -282 8 -282 -128 0 -83 2 -92
22 -106 12 -9 33 -16 45 -16 19 0 23 -5 23 -32 0 -92 -37 -145 -164 -237 -105
-77 -139 -113 -173 -186 l-28 -60 -3 -427 -3 -428 -27 -6 c-15 -3 -67 -19
-117 -36 -165 -55 -187 -60 -253 -54 -81 7 -139 46 -192 128 -61 93 -75 151
-75 308 0 156 15 230 78 380 44 104 67 181 67 221 0 24 5 27 48 33 124 17 236
80 338 189 66 71 120 159 109 177 -3 5 6 32 20 61 70 137 144 378 176 571 33
200 13 301 -74 372 -48 38 -94 56 -146 56 -20 1 -47 7 -61 15 -14 8 -44 14
-68 15 -99 0 -163 -79 -123 -153 36 -68 168 -59 210 14 13 23 20 27 46 22 76
-14 129 -71 140 -151 20 -149 -134 -693 -220 -777 -17 -16 -44 -49 -60 -73
-77 -117 -215 -201 -341 -210 -157 -10 -298 67 -411 225 -25 35 -50 63 -57 63
-7 0 -20 17 -29 38 -8 20 -29 71 -47 112 -67 160 -119 369 -127 517 -5 83 -3
111 11 148 20 52 62 88 121 104 57 16 61 15 85 -24 39 -63 144 -71 196 -14 25
28 25 91 -1 120 -37 41 -103 59 -151 39z m1637 -1135 c10 -106 48 -158 181
-252 93 -65 150 -128 166 -181 24 -78 47 -72 -288 -72 l-301 0 -44 -46 c-25
-25 -45 -50 -45 -55 0 -5 -13 -15 -30 -24 -21 -11 -61 -15 -145 -15 l-115 0 0
78 c0 143 33 199 186 313 137 103 157 131 175 243 6 33 12 63 15 68 3 5 58 7
122 6 l117 -3 6 -60z m54 -760 l0 -70 -130 0 -130 0 -3 29 c-2 17 -1 49 3 73
l6 44 127 -3 127 -3 0 -70z m48 -160 c55 -40 67 -80 68 -230 1 -75 -1 -138 -3
-140 -2 -2 -31 2 -63 10 -33 7 -97 19 -142 25 l-83 12 0 57 c0 31 -5 74 -11
96 -23 88 -28 122 -22 158 l6 39 111 -4 c92 -2 116 -6 139 -23z m-396 -51 c58
-35 103 -114 103 -180 0 -136 -136 -247 -261 -214 -103 28 -169 111 -169 212
1 173 180 272 327 182z"/>
<path d="M4324 7460 c-89 -36 -81 -190 11 -220 49 -16 89 -4 125 36 83 95 -18
232 -136 184z"/>
<path d="M5820 9446 c0 -2 8 -10 18 -17 15 -13 16 -12 3 4 -13 16 -21 21 -21
13z"/>
<path d="M6346 8637 c3 -10 9 -15 12 -12 3 3 0 11 -7 18 -10 9 -11 8 -5 -6z"/>
<path d="M2711 8354 c0 -11 3 -14 6 -6 3 7 2 16 -1 19 -3 4 -6 -2 -5 -13z"/>
<path d="M2812 8330 c0 -14 2 -19 5 -12 2 6 2 18 0 25 -3 6 -5 1 -5 -13z"/>
<path d="M2802 8260 c0 -19 2 -27 5 -17 2 9 2 25 0 35 -3 9 -5 1 -5 -18z"/>
<path d="M2801 7964 c0 -11 3 -14 6 -6 3 7 2 16 -1 19 -3 4 -6 -2 -5 -13z"/>
<path d="M2811 7904 c0 -11 3 -14 6 -6 3 7 2 16 -1 19 -3 4 -6 -2 -5 -13z"/>
<path d="M4378 6263 c7 -3 16 -2 19 1 4 3 -2 6 -13 5 -11 0 -14 -3 -6 -6z"/>
<path d="M4888 6263 c7 -3 16 -2 19 1 4 3 -2 6 -13 5 -11 0 -14 -3 -6 -6z"/>
<path d="M3633 6093 c-37 -5 -40 -17 -21 -70 12 -32 14 -33 68 -33 42 0 61 -5
73 -18 14 -15 67 -124 67 -137 0 -3 -63 -5 -140 -5 l-140 0 0 -53 0 -52 110 3
c149 5 160 2 160 -48 0 -37 -2 -40 -26 -40 -86 0 -183 -70 -204 -148 -43 -163
100 -289 305 -268 71 7 155 35 155 52 0 10 -28 85 -35 92 -1 1 -22 -7 -46 -18
-48 -21 -149 -27 -192 -11 -67 26 -92 115 -44 158 38 35 63 43 141 43 l75 0 3
93 3 92 100 0 100 0 3 -252 2 -253 65 0 66 0 -1 253 -1 252 233 0 233 0 0 -30
0 -30 -85 -5 c-47 -3 -95 -11 -107 -18 -76 -43 -70 -138 12 -211 41 -35 37
-35 121 -19 55 10 66 9 88 -6 58 -37 21 -76 -72 -76 -79 0 -131 21 -191 75
l-41 37 -37 -28 c-20 -16 -42 -32 -47 -37 -15 -10 57 -72 125 -107 138 -71
338 -60 391 22 41 63 29 141 -29 185 -34 26 -44 28 -136 29 -82 2 -102 5 -109
18 -22 40 -5 46 126 46 l125 0 3 78 3 77 95 0 95 0 3 -77 c3 -76 2 -78 -21
-78 -30 0 -57 -29 -57 -62 0 -55 84 -138 140 -138 53 0 59 21 62 195 l3 160
75 0 75 0 3 -253 2 -253 63 3 62 3 2 250 3 250 32 2 c18 1 39 2 46 2 8 1 12
18 12 51 l0 50 -364 0 -365 0 -76 75 c-82 79 -156 130 -245 165 -44 18 -77 23
-165 23 -99 1 -114 -1 -155 -23 -67 -38 -93 -82 -87 -150 2 -30 8 -63 12 -73
7 -16 0 -17 -99 -15 l-107 3 -24 70 c-29 83 -69 142 -112 167 -33 20 -105 29
-160 21z m869 -120 c51 -20 120 -65 168 -110 l35 -33 -222 0 -222 0 -11 39
c-12 46 -2 82 32 105 31 22 163 22 220 -1z"/>
<path d="M4795 6088 c-27 -15 -35 -28 -35 -60 0 -64 80 -91 119 -42 27 35 26
59 -4 89 -26 27 -49 31 -80 13z"/>
<path d="M7680 6087 c-81 -27 -114 -76 -107 -156 3 -31 8 -66 12 -78 l7 -23
-896 0 -896 0 0 -50 0 -50 188 -2 187 -3 3 -127 3 -127 -42 -28 c-51 -34 -127
-39 -155 -11 -23 22 -22 73 1 98 14 16 31 20 80 20 69 0 75 5 75 66 0 41 -21
49 -108 42 -75 -6 -127 -32 -164 -82 -27 -37 -29 -47 -26 -101 5 -74 33 -119
92 -146 50 -23 143 -25 193 -4 19 8 39 15 44 15 5 0 9 -27 9 -60 l0 -60 60 0
60 0 0 118 c0 111 2 120 23 140 32 30 79 38 100 17 24 -23 21 -89 -4 -142 -12
-24 -20 -45 -18 -47 2 -1 26 -15 53 -30 54 -32 53 -32 88 43 26 55 34 147 18
195 -6 21 -27 48 -48 64 -30 23 -45 27 -96 27 -34 0 -74 -4 -89 -9 l-28 -8 3
68 3 69 185 0 185 0 5 -136 c6 -130 7 -139 33 -173 16 -20 41 -43 58 -51 34
-18 137 -21 189 -5 19 5 39 10 44 10 5 0 6 -34 4 -75 l-5 -75 63 0 64 0 2 253
3 252 238 3 237 2 0 -72 0 -73 -164 0 c-123 0 -167 -3 -179 -14 -37 -30 -10
-113 50 -157 68 -50 133 -34 133 31 l0 35 80 0 80 0 0 -130 0 -130 65 0 65 0
2 253 3 252 78 0 78 0 2 -250 2 -250 62 -3 63 -3 2 253 3 253 43 3 42 3 0 50
0 49 -49 0 -48 0 -21 58 c-62 169 -185 244 -322 199z m147 -113 c21 -13 52
-63 73 -119 l10 -25 -99 0 -99 0 -10 43 c-26 102 39 154 125 101z m-819 -342
c2 -51 1 -103 -2 -115 -7 -31 -74 -67 -125 -67 -61 0 -72 23 -72 157 0 59 0
112 0 116 1 4 45 6 98 5 l97 -3 4 -93z"/>
<path d="M6190 6028 c-27 -29 -25 -69 3 -96 32 -30 71 -28 96 4 12 15 21 34
21 44 0 10 -9 29 -21 44 -26 33 -70 35 -99 4z"/>
<path d="M1460 5780 c0 -54 -1 -53 68 -51 l42 1 0 -70 c0 -39 0 -73 0 -77 0
-5 -11 -9 -25 -11 -55 -7 -69 -82 -25 -130 67 -72 135 -92 164 -50 13 18 16
54 16 180 l0 158 75 0 75 0 0 -246 c0 -237 -1 -246 -20 -251 -23 -6 -24 -17
-10 -60 11 -29 13 -30 71 -29 43 1 62 -3 69 -14 55 -86 -119 -110 -211 -28
-13 12 -36 32 -51 46 l-27 25 -42 -29 -41 -28 60 -57 c77 -73 143 -99 250 -99
88 0 129 18 163 72 37 60 12 150 -52 186 l-29 17 0 248 0 248 73 -3 72 -3 5
-137 c5 -134 5 -137 36 -175 17 -21 42 -44 55 -50 33 -17 152 -16 194 1 l35
15 29 -42 c16 -23 50 -62 75 -87 l46 -44 40 39 40 39 -55 57 c-48 50 -55 63
-55 98 0 57 23 69 132 73 48 1 90 0 93 -4 4 -4 6 -70 6 -147 l-2 -141 65 0 66
0 2 253 3 252 50 3 c27 2 63 1 80 -2 l30 -6 -3 -250 -3 -250 65 0 66 0 2 253
3 252 43 -2 c46 -2 42 -8 45 75 l1 27 -927 3 -927 2 0 -50z m1340 -105 l0 -55
-84 0 c-157 0 -234 -28 -262 -97 -19 -43 -67 -73 -121 -73 -62 0 -72 20 -73
155 -1 61 -1 113 -1 117 1 4 123 7 271 8 l270 0 0 -55z"/>
<path d="M3688 5133 c-127 -71 -125 -68 -76 -125 l23 -27 97 59 97 59 53 -60
53 -60 38 26 c20 14 37 30 37 34 0 5 -32 43 -71 85 -90 96 -95 96 -251 9z"/>
<path d="M3617 4760 c-66 -12 -118 -40 -145 -81 -20 -28 -23 -43 -19 -89 2
-30 8 -63 12 -72 7 -17 -18 -18 -434 -18 l-441 0 0 -55 0 -55 188 -2 187 -3 3
-105 c2 -58 -1 -117 -7 -132 -11 -30 -83 -68 -130 -68 -37 0 -81 38 -81 70 0
12 11 32 25 45 20 21 34 25 83 25 l59 0 7 38 c3 20 6 42 6 49 0 18 -98 26
-155 13 -100 -23 -151 -89 -143 -188 5 -56 25 -91 72 -126 37 -28 156 -35 210
-12 21 9 42 13 47 10 5 -3 9 -26 9 -52 0 -35 -8 -58 -30 -91 -55 -81 -37 -176
40 -216 54 -28 230 -12 230 20 0 7 -7 29 -15 48 l-15 36 -35 -14 c-49 -21 -98
-19 -120 5 -25 28 -8 64 38 79 l35 12 -5 133 c-3 73 -3 144 0 158 10 40 96 65
125 36 18 -18 14 -84 -8 -130 -11 -23 -20 -45 -20 -50 0 -8 100 -62 104 -56
39 61 66 140 66 195 0 50 -29 111 -64 136 -25 18 -44 22 -99 21 -38 0 -72 -5
-79 -12 -23 -23 -28 -12 -28 58 l0 70 195 0 195 0 0 -250 0 -251 60 3 61 3 0
248 0 247 79 0 80 0 0 -119 c0 -80 5 -130 14 -152 34 -80 114 -116 219 -99 31
5 65 14 76 19 26 14 28 9 27 -76 l-1 -73 62 0 63 0 0 250 0 250 51 0 50 0 -3
53 -3 52 -70 3 -70 3 -50 52 c-96 101 -205 171 -300 195 -62 16 -155 21 -208
12z m255 -138 c35 -18 86 -52 113 -76 l50 -45 -221 -1 c-245 0 -234 -3 -234
65 0 76 36 97 152 92 62 -3 89 -10 140 -35z m227 -327 c-1 -53 -5 -98 -9 -100
-3 -2 -41 41 -83 96 l-77 99 86 0 85 0 -2 -95z m-129 -60 c82 -107 82 -115 -1
-115 -69 0 -83 21 -88 132 -2 55 1 88 6 85 5 -4 43 -49 83 -102z"/>
<path d="M5058 4743 c-21 -8 -38 -18 -38 -22 0 -23 72 -120 108 -145 37 -26
55 -31 116 -34 121 -6 187 36 230 146 15 40 15 43 -1 48 -10 3 -28 10 -41 15
-38 15 -46 11 -66 -36 -26 -65 -59 -88 -119 -82 -55 5 -100 40 -119 94 -14 37
-18 38 -70 16z"/>
<path d="M4540 4445 l0 -55 195 0 195 0 0 -30 0 -30 -75 0 c-42 0 -90 -6 -109
-14 -97 -41 -86 -164 22 -238 19 -13 28 -13 75 -1 77 21 137 4 137 -38 0 -28
-37 -42 -107 -41 -69 1 -109 18 -183 75 l-45 34 -42 -30 c-24 -17 -43 -34 -43
-38 0 -14 79 -75 132 -102 144 -73 348 -55 394 35 38 74 11 157 -63 190 -35
15 -62 19 -125 17 -65 -3 -81 0 -89 13 -5 9 -6 23 -3 32 5 13 26 16 125 16
l119 0 0 74 0 75 86 3 c47 2 88 1 90 -1 2 -2 4 -116 4 -253 l0 -248 60 0 60 0
0 250 0 250 230 0 230 0 0 -127 0 -128 -33 -22 c-81 -55 -177 -35 -177 37 0
45 40 70 110 70 l57 0 6 48 c3 26 3 49 0 52 -2 3 -41 5 -86 4 -90 -1 -124 -13
-170 -61 -75 -79 -48 -214 54 -265 42 -22 138 -23 194 -3 22 8 41 15 43 15 1
0 2 -27 2 -60 l0 -60 65 0 65 0 0 108 c0 107 0 109 25 120 14 7 41 12 60 12
34 0 35 -1 35 -42 0 -86 76 -167 179 -189 66 -14 177 -6 244 18 51 18 51 18
21 89 l-14 32 -52 -20 c-75 -28 -186 -23 -222 11 -35 33 -42 73 -19 119 22 45
60 61 156 61 l67 1 0 90 0 90 184 0 c174 0 185 -1 191 -20 9 -29 -5 -87 -26
-106 -17 -15 -21 -15 -53 0 -95 45 -161 -17 -116 -110 22 -45 253 -274 276
-274 7 0 27 18 45 41 26 33 29 43 18 49 -23 14 -167 144 -168 152 -1 4 14 15
32 24 81 41 117 97 117 184 l0 60 35 0 35 0 0 55 0 55 -1225 0 -1225 0 0 -55z
m1758 -92 c-3 -32 -7 -38 -28 -41 -35 -4 -110 -32 -140 -52 -14 -9 -52 -20
-85 -24 -32 -4 -69 -9 -82 -12 -23 -6 -23 -5 -23 80 l0 86 181 0 180 0 -3 -37z"/>
<path d="M2590 3780 l0 -40 105 0 105 0 0 40 0 40 -105 0 -105 0 0 -40z"/>
<path d="M3290 3780 l0 -40 1845 0 1845 0 0 40 0 40 -1845 0 -1845 0 0 -40z"/>
</g>
</svg>
